<svg width="21.651855" height="19.242188" viewBox="0 0 21.6519 19.2422" fill="none" xmlns="http://www.w3.org/2000/svg" xmlns:xlink="http://www.w3.org/1999/xlink">
	<desc>
			Created with Pixso.
	</desc>
	<defs/>
	<path id="Vector" d="M9.65186 0C7.10449 0 4.76172 0.789062 3.03418 2.10938C1.30566 3.43164 0.151855 5.32812 0.151855 7.5C0.151855 8.52539 0.411133 9.49805 0.871094 10.377C0.871582 10.416 0.870117 10.4707 0.862793 10.5488C0.842773 10.7695 0.789551 11.0684 0.707031 11.4238C0.542969 12.1309 0.291504 12.9492 0.0786133 13.5957C-0.32373 14.8164 0.89209 15.9629 2.08594 15.498C2.7749 15.2305 3.6792 14.8984 4.48486 14.6641C4.88965 14.5449 5.24512 14.459 5.52393 14.4141C5.70898 14.3848 5.80762 14.3848 5.84424 14.3828C5.85547 14.3828 5.86084 14.3828 5.86133 14.3828C7.02588 14.7812 8.30908 15 9.65186 15C12.1992 15 14.5425 14.2109 16.27 12.8906C17.998 11.5684 19.1519 9.67188 19.1519 7.5C19.1519 5.32812 17.998 3.43164 16.27 2.10938C14.5425 0.789062 12.1992 0 9.65186 0ZM2.15186 7.5C2.15186 6.08203 2.90088 4.72852 4.24902 3.69727C5.59766 2.66602 7.50488 2 9.65186 2C11.7993 2 13.7061 2.66602 15.0547 3.69727C16.4028 4.72852 17.1519 6.08203 17.1519 7.5C17.1519 8.91797 16.4028 10.2715 15.0547 11.3027C13.7061 12.334 11.7993 13 9.65186 13C8.51367 13 7.43945 12.8125 6.479 12.4805C6.05078 12.332 5.5542 12.3848 5.21143 12.4395C4.81396 12.502 4.36719 12.6152 3.9248 12.7441C3.37744 12.9023 2.7998 13.0996 2.27197 13.291C2.41113 12.8301 2.54785 12.3379 2.65527 11.877C2.74658 11.4824 2.82275 11.082 2.85498 10.7285C2.87061 10.5527 2.87793 10.3633 2.86328 10.1797C2.8501 10.0117 2.81299 9.76172 2.68115 9.52148C2.33594 8.88867 2.15186 8.20703 2.15186 7.5ZM19.5952 11.3535C20.0952 10.4922 20.4331 9.55469 20.5752 8.56641C21.2563 9.56445 21.6519 10.7266 21.6519 12C21.6519 13.1309 21.3281 14.1914 20.7656 15.123C20.7612 15.1445 20.7549 15.1836 20.75 15.248C20.7378 15.4023 20.7397 15.6113 20.7568 15.8672C20.7915 16.375 20.8794 16.9609 20.9639 17.4414C21.1606 18.5586 20.0947 19.5195 18.9946 19.1699C18.4761 19.0039 17.8101 18.8066 17.2178 18.6738C16.9204 18.6074 16.6626 18.5605 16.4619 18.5391C16.3345 18.5273 16.2661 18.5273 16.2412 18.5293L16.2412 18.5293L16.2319 18.5293C15.2744 18.834 14.2349 19 13.1519 19C10.3799 19 7.78027 17.873 6.20312 16.0488C7.28809 16.3418 8.44727 16.5 9.65186 16.5C9.85938 16.5 10.0659 16.4961 10.2705 16.4863C11.1226 16.8125 12.0938 17 13.1519 17C14.0415 17 14.8857 16.8613 15.6528 16.6133C16.0034 16.5 16.396 16.5215 16.6675 16.5508C16.9785 16.582 17.3223 16.6465 17.6577 16.7227C18.0615 16.8145 18.4849 16.9277 18.875 17.043C18.8267 16.7031 18.7847 16.3438 18.7617 16.002C18.7412 15.6973 18.7334 15.3809 18.7563 15.0918C18.7759 14.8379 18.8281 14.4551 19.0298 14.1289C19.4336 13.4746 19.6519 12.7539 19.6519 12C19.6519 11.7832 19.6328 11.5684 19.5952 11.3535Z" fill="#FF3F3A" fill-opacity="1.000000" fill-rule="evenodd"/>
</svg>
