<svg width="24.000000" height="24.000000" viewBox="0 0 24 24" fill="none" xmlns="http://www.w3.org/2000/svg" xmlns:xlink="http://www.w3.org/1999/xlink">
	<desc>
			Created with Pixso.
	</desc>
	<defs>
		<clipPath id="clip2492_22156">
			<rect id="Pin/outline" width="24.000000" height="24.000000" fill="white" fill-opacity="0"/>
		</clipPath>
	</defs>
	<g clip-path="url(#clip2492_22156)">
		<path id="Vector" d="M11.3809 22.5352C11.3809 22.5352 11.3813 22.5352 12 21.75L12.6187 22.5352C12.2559 22.8223 11.7437 22.8203 11.3809 22.5352ZM11.3809 22.5352L12 21.75C12.6187 22.5352 12.6196 22.5352 12.6201 22.5352L12.6216 22.5332L12.6274 22.5293L12.647 22.5137C12.6631 22.5 12.6865 22.4805 12.7163 22.457C12.7759 22.4082 12.8613 22.3379 12.9692 22.2461C13.1841 22.0645 13.4883 21.7988 13.8521 21.4609C14.5786 20.7871 15.5483 19.8184 16.5205 18.6426C18.4321 16.332 20.5 13.043 20.5 9.51953C20.5 4.92383 16.6646 1.25 12 1.25C7.33545 1.25 3.5 4.92383 3.5 9.51953C3.5 13.043 5.56787 16.332 7.47949 18.6426C8.45166 19.8184 9.42139 20.7871 10.1479 21.4609C10.5117 21.7988 10.8159 22.0645 11.0308 22.2461C11.1387 22.3379 11.2241 22.4082 11.2837 22.457C11.3135 22.4805 11.3369 22.5 11.353 22.5137L11.3726 22.5293L11.3784 22.5332L11.3809 22.5352ZM5.5 9.51953C5.5 6.08594 8.38037 3.25 12 3.25C15.6196 3.25 18.5 6.08594 18.5 9.51953C18.5 12.3184 16.8179 15.1445 14.9795 17.3691C14.0767 18.459 13.1714 19.3633 12.4917 19.9961C12.3096 20.1641 12.1445 20.3125 12 20.4395C11.8555 20.3125 11.6904 20.1641 11.5083 19.9961C10.8286 19.3633 9.92334 18.459 9.02051 17.3691C7.18213 15.1445 5.5 12.3184 5.5 9.51953ZM12 5.75C9.79102 5.75 8 7.54102 8 9.75C8 11.959 9.79102 13.75 12 13.75C14.209 13.75 16 11.959 16 9.75C16 7.54102 14.209 5.75 12 5.75ZM10 9.75C10 8.64453 10.8955 7.75 12 7.75C13.1045 7.75 14 8.64453 14 9.75C14 10.8555 13.1045 11.75 12 11.75C10.8955 11.75 10 10.8555 10 9.75Z" fill="#FF3F3A" fill-opacity="1.000000" fill-rule="evenodd"/>
	</g>
</svg>
